<?xml version="1.0" encoding="UTF-8"?>
<svg id="Layer_1" xmlns="http://www.w3.org/2000/svg" version="1.1" viewBox="0 0 389.7 57.9">
  <!-- Generator: Adobe Illustrator 29.6.0, SVG Export Plug-In . SVG Version: 2.1.1 Build 207)  -->
  <defs>
    <style>
      .st0 {
        fill: #0e6a94;
      }

      .st1 {
        fill: #0e0d0f;
      }
    </style>
  </defs>
  <path class="st1" d="M33.1,48.1v8.8H0V1.1h32.7v8.8H8.9v14.5h21.8v8.7H8.9v15.1h24.1Z"/>
  <path class="st1" d="M41.1,1.1h8.4v55.8h-8.4V1.1Z"/>
  <path class="st1" d="M121.1,50.1c4.7,0,8.2-2.1,10-4.9l6.9,4.1c-3.6,5.4-9.4,8.7-17,8.7-12.8,0-21.2-9-21.2-21s8.3-21,20.5-21,19.5,9.6,19.5,21-.2,2.5-.3,3.6h-31c1.3,6.2,6.2,9.4,12.5,9.4ZM131.5,33.6c-1.2-6.9-6.1-9.8-11.1-9.8s-10.6,3.8-11.7,9.8h22.9Z"/>
  <path class="st1" d="M156.5,16.3v.8h9.2v8.3h-9.2v31.6h-8.4v-31.6h-5.9v-8.3h5.9v-.8c0-10.8,5.9-17,17.6-16.2v8.3c-5.9-.5-9.2,1.8-9.2,7.9Z"/>
  <path class="st1" d="M187.1,50.1c4.7,0,8.2-2.1,10-4.9l6.9,4.1c-3.6,5.4-9.4,8.7-17,8.7-12.8,0-21.2-9-21.2-21s8.3-21,20.5-21,19.5,9.6,19.5,21-.2,2.5-.3,3.6h-30.9c1.3,6.2,6.2,9.4,12.4,9.4ZM197.4,33.6c-1.2-6.9-6.1-9.8-11.1-9.8s-10.6,3.8-11.8,9.8h22.9Z"/>
  <path class="st1" d="M232.9,16.3v9.3c-5.5-.4-12,2.2-12,11.2v20.1h-8.4V17.1h8.4v6.7c2.3-5.4,7.1-7.4,12-7.4Z"/>
  <path class="st1" d="M255.7,50.1c4.7,0,8.2-2.1,10-4.9l6.9,4.1c-3.6,5.4-9.4,8.7-17,8.7-12.8,0-21.2-9-21.2-21s8.3-21,20.5-21,19.5,9.6,19.5,21-.2,2.5-.3,3.6h-31c1.3,6.2,6.2,9.4,12.5,9.4ZM266,33.6c-1.2-6.9-6.1-9.8-11.1-9.8s-10.6,3.8-11.7,9.8h22.9Z"/>
  <path class="st1" d="M316.5,32.4v24.5h-8.4v-23.6c0-6.1-3.4-9.3-8.7-9.3s-9.9,3.4-9.9,11.5v21.4h-8.4V17.1h8.4v5.1c2.6-4.1,6.8-6.1,12.1-6.1,8.7,0,14.9,6.1,14.9,16.4Z"/>
  <path class="st1" d="M336.8,25.3v19.1c0,5.1,3.3,5,9.7,4.7v7.7c-12.9,1.6-18.1-2.1-18.1-12.4v-19.1h-7.2v-8.3h7.2v-8.6l8.4-2.5v11.2h9.7v8.3h-9.7Z"/>
  <path class="st1" d="M370.8,50.1c4.7,0,8.2-2.1,10-4.9l6.9,4.1c-3.6,5.4-9.4,8.7-17,8.7-12.8,0-21.2-9-21.2-21s8.3-21,20.5-21,19.5,9.6,19.5,21-.2,2.5-.3,3.6h-31c1.3,6.2,6.2,9.4,12.5,9.4ZM381.2,33.6c-1.2-6.9-6.1-9.8-11.1-9.8s-10.6,3.8-11.7,9.8h22.9Z"/>
  <path class="st0" d="M86.2,35.2c6.4-2.6,10.8-9,10.8-16.2S89.2,1.1,79.5,1.1h-21.8v8.6h21.8c4.8,0,8.6,4.1,8.6,9.3s-3.8,9.3-8.6,9.3h-21.8v28.5h8.9v-20.3h10.6l11.5,20.3h9.8l-12.4-21.7Z"/>
</svg>