<?xml version="1.0" encoding="UTF-8"?>
<svg id="Layer_1" xmlns="http://www.w3.org/2000/svg" viewBox="0 0 802.87 99.53">
  <defs>
    <style>
      .cls-1 {
        fill: #645bc9;
      }

      .cls-2 {
        fill: #194fb5;
      }

      .cls-3 {
        fill: #ae69dd;
      }

      .cls-4 {
        fill: #9463d8;
      }

      .cls-5 {
        fill: #ca6be6;
      }

      .cls-6 {
        fill: #4056c0;
      }

      .cls-7 {
        fill: #825fd2;
      }

      .cls-8 {
        fill: #004aac;
      }

      .cls-9 {
        fill: #3152bb;
      }
    </style>
  </defs>
  <g id="title">
    <path id="path722843" class="cls-8" d="M79.47,50.17v33.77c-7.44,6.03-16.68,8.96-27.88,8.96-8.42,0-15.98-1.82-22.71-5.61-6.73-3.79-12.05-8.96-15.98-15.55-3.93-6.56-5.75-13.85-5.75-21.99s1.82-15.41,5.75-21.99c3.79-6.59,9.1-11.77,15.84-15.55,6.73-3.65,14.43-5.61,22.85-5.61,6.17,0,11.77.98,16.82,2.81s9.66,4.77,13.87,8.82l4.49-4.77c-4.35-4.35-9.52-7.72-15.55-9.94S58.61,0,51.45,0C41.65,0,32.81,2.24,24.97,6.45c-7.87,4.35-13.89,10.22-18.38,17.8C2.1,31.83,0,40.37,0,49.77s2.1,17.94,6.59,25.51,10.5,13.59,18.36,17.8c7.86,4.35,16.54,6.45,26.34,6.45,6.73,0,13.17-.98,19.34-3.23,6.17-2.1,11.35-5.19,15.69-9.38v-36.76h-6.86Z"/>
    <path id="path722845" class="cls-2" d="M181.29,45.84h-63.48v6.31h63.48s0-6.31,0-6.31ZM181.29.7h-63.48v6.45h63.48s0-6.45,0-6.45ZM117.79,92.36v6.45h63.48v-6.45h-63.48Z"/>
    <path id="path722847" class="cls-9" d="M247.56.7h-7.15l-45.12,98.1h7.72L243.93,8.54l41.07,90.26h7.72L247.56.7Z"/>
    <path id="path722849" class="cls-6" d="M362.21,64.48c7.3-2.1,13.03-5.75,16.96-11.07,3.93-5.33,6.03-11.77,6.03-19.62,0-10.22-3.51-18.36-10.5-24.25-7.01-5.89-16.68-8.82-29-8.82h-35.18v6.45h35.16c10.36,0,18.36,2.38,23.97,7.01,5.47,4.63,8.28,11.21,8.28,19.62s-2.81,15.13-8.28,19.76c-5.61,4.63-13.59,6.87-23.97,6.87h-35.18v38.4h7.15v-32.09h28.02c2.81,0,6.03-.14,9.52-.7l23.41,32.79h8.14l-24.53-34.37Z"/>
    <path id="path722851" class="cls-1" d="M416.69,95.87c6.45,2.53,13.31,3.65,20.6,3.65,7.72,0,14.29-1.12,19.62-3.51,5.33-2.24,9.24-5.47,11.77-9.38,2.53-3.93,3.93-8.28,3.93-13.03,0-5.75-1.54-10.36-4.63-13.73-3.09-3.37-6.73-6.03-10.92-7.72-4.35-1.68-10.08-3.37-17.24-5.19-6.45-1.54-11.63-3.09-15.27-4.49-3.79-1.4-6.87-3.37-9.38-6.03-2.53-2.53-3.79-6.03-3.79-10.5,0-5.75,2.24-10.5,7.01-14.15,4.63-3.65,11.49-5.47,20.6-5.47,4.49,0,9.1.7,13.87,2.1s9.1,3.51,13.03,6.17l2.67-5.75c-3.93-2.67-8.42-4.77-13.59-6.45-5.33-1.54-10.64-2.38-15.98-2.38-7.86,0-14.29,1.26-19.48,3.51-5.19,2.38-8.96,5.61-11.49,9.52s-3.79,8.28-3.79,13.03c0,5.89,1.4,10.64,4.49,14.15,3.09,3.51,6.73,6.03,11.07,7.72,4.35,1.68,10.08,3.51,17.38,5.19,6.31,1.54,11.35,2.95,15.13,4.35,3.65,1.4,6.87,3.51,9.38,6.03,2.53,2.67,3.79,6.17,3.79,10.5,0,5.75-2.38,10.36-7.15,13.87-4.77,3.65-11.91,5.33-21.17,5.33-6.45,0-12.61-1.12-18.5-3.37s-10.5-5.33-13.87-8.96l-3.23,5.33c3.63,3.91,8.68,7.14,15.13,9.66h0Z"/>
    <path id="path722853" class="cls-7" d="M576.8.7h-7.15v45.12h-65.58V.7h-7.15v98.1h7.15v-46.66h65.58v46.66h7.15V.7Z"/>
    <path id="path722855" class="cls-4" d="M611.04.7v98.1h7.15V.7h-7.15Z"/>
    <path id="path722857" class="cls-3" d="M652.38.7v6.45h62.78V.7h-62.78ZM652.38,98.82h7.15v-43.31h55.64v-6.45h-62.78v49.77h-.02Z"/>
    <path id="path722859" class="cls-5" d="M760.4,7.15v91.66h7.15V7.15h35.32V.7h-77.79v6.45h35.32Z"/>
  </g>
</svg>