<?xml version="1.0" encoding="utf-8"?>
<!-- Generator: Adobe Illustrator 27.6.1, SVG Export Plug-In . SVG Version: 6.00 Build 0)  -->
<svg version="1.1" id="Layer_1" xmlns="http://www.w3.org/2000/svg" xmlns:xlink="http://www.w3.org/1999/xlink" x="0px" y="0px"
	 viewBox="0 0 240 74" style="enable-background:new 0 0 240 74;" xml:space="preserve">
<style type="text/css">
	.st0{fill:url(#SVGID_1_);}
</style>
<linearGradient id="SVGID_1_" gradientUnits="userSpaceOnUse" x1="0" y1="37.047" x2="240" y2="37.047">
	<stop  offset="2.492013e-07" style="stop-color:#F47B20"/>
	<stop  offset="1" style="stop-color:#FBA919"/>
</linearGradient>
<path class="st0" d="M47.6,44.31c5.89,22.92-18.16,31.01-31.79,29.58C2.19,72.45,0,59.73,0,59.73s14.3,5.48,29.99-0.62
	s-5.72-34.89-5.72-34.89S41.71,21.38,47.6,44.31z M31.87,0.14C22-0.96-4.75,7.31,1.6,29.22s23.53,20.56,23.53,20.56
	S4.04,24.11,19.68,14.89c9.27-5.46,29.27-0.59,29.27-0.59S48.51,2,31.87,0.14z M64.14,56.32c1.02,0.92,1.96,1.51,2.83,1.76
	c-1.33,1.64-2.81,3.22-4.44,4.76c-1.63,1.59-3.27,3.02-4.9,4.3c0.26,2.05,1.05,3.71,2.37,4.99c1.33,1.28,3.06,1.92,5.21,1.92
	c1.22,0,2.4-0.18,3.52-0.54c1.12-0.31,2.25-0.92,3.37-1.84c1.12-0.87,2.3-2.1,3.52-3.68c1.22-1.59,2.55-3.63,3.98-6.14
	c0.87-1.48,1.76-3.15,2.68-4.99c0.92-1.89,1.81-3.89,2.68-5.98c0.87-2.1,1.68-4.22,2.45-6.37c0.82-2.2,1.51-4.32,2.07-6.37
	c0.61-2.05,1.1-3.96,1.45-5.75c0.36-1.84,0.54-3.45,0.54-4.83c0-1.89-0.59-3.22-1.76-3.99c-1.17-0.77-2.65-1.15-4.44-1.15
	c-2.19,0-4.21,0.49-6.05,1.46c-0.36,2.1-0.79,4.25-1.3,6.44c-0.46,2.15-0.97,4.32-1.53,6.52c-0.56,2.15-1.15,4.25-1.76,6.29
	c-0.56,2.05-1.15,3.94-1.76,5.68h-0.31l-6.05-21.1c-0.56-2.05-1.43-3.43-2.6-4.14c-1.17-0.77-2.65-1.15-4.44-1.15
	c-1.43,0-2.76,0.28-3.98,0.84c-1.17,0.51-2.12,1.13-2.83,1.84c0.82,3.43,1.58,6.47,2.3,9.13c0.77,2.61,1.48,4.94,2.14,6.98
	c0.71,2.05,1.38,3.86,1.99,5.45c0.66,1.59,1.28,3.02,1.84,4.3C62.09,53.56,63.17,55.35,64.14,56.32z M120.25,54.94
	c0,1.28,0.15,2.33,0.46,3.15c0.36,0.77,0.84,1.38,1.45,1.84c0.61,0.46,1.35,0.77,2.22,0.92c0.92,0.15,1.94,0.23,3.06,0.23
	c1.17,0,2.3-0.08,3.37-0.23c1.12-0.15,1.94-0.31,2.45-0.46V36.38c0-4.5-1.56-8-4.67-10.51c-3.11-2.56-7.55-3.84-13.32-3.84
	c-3.22,0-6.15,0.38-8.8,1.15c-2.6,0.77-4.77,1.76-6.51,2.99c-1.02,0.72-1.84,1.51-2.45,2.38c-0.56,0.87-0.84,1.99-0.84,3.38v23.02
	c0,1.28,0.15,2.33,0.46,3.15c0.36,0.77,0.84,1.38,1.45,1.84c0.61,0.46,1.35,0.77,2.22,0.92c0.92,0.15,1.94,0.23,3.06,0.23
	c1.17,0,2.3-0.08,3.37-0.23c1.12-0.15,1.94-0.31,2.45-0.46V33.77c0.71-0.51,1.56-0.9,2.53-1.15c1.02-0.26,2.04-0.38,3.06-0.38
	c1.53,0,2.73,0.38,3.6,1.15c0.92,0.72,1.38,1.87,1.38,3.45L120.25,54.94z M166.03,23.33c1.99,0,3.73,0.31,5.21,0.92
	c1.53,0.61,2.96,1.36,4.29,2.22c0.87-0.56,1.63-1.33,2.3-2.3c0.66-0.97,1-2.12,1-3.45c0-2.4-1.3-4.37-3.9-5.91
	c-2.55-1.53-6.18-2.3-10.87-2.3c-3.32,0-6.43,0.54-9.34,1.61c-2.91,1.07-5.46,2.66-7.66,4.76c-2.14,2.1-3.85,4.68-5.13,7.75
	c-1.22,3.02-1.84,6.52-1.84,10.51c0,4.3,0.64,8,1.91,11.12c1.33,3.07,3.11,5.63,5.36,7.67c2.25,1.99,4.87,3.48,7.89,4.45
	c3.01,0.97,6.23,1.46,9.65,1.46c4.75,0,8.27-0.72,10.56-2.15c2.35-1.48,3.52-3.27,3.52-5.37c0-1.33-0.26-2.48-0.77-3.45
	c-0.46-1.02-1.12-1.89-1.99-2.61c-1.33,0.72-2.73,1.36-4.21,1.92c-1.43,0.56-3.19,0.84-5.28,0.84c-3.93,0-7.07-1.2-9.42-3.61
	c-2.3-2.4-3.45-5.83-3.45-10.28c0-4.4,1.05-7.8,3.14-10.2C159.09,24.53,162.1,23.33,166.03,23.33L166.03,23.33z M200.96,52.18
	c-1.89,0-3.24-0.31-4.06-0.92c-0.77-0.66-1.15-1.51-1.15-2.53s0.46-1.79,1.38-2.3c0.92-0.51,2.09-0.82,3.52-0.92l5.51-0.46v6.14
	c-0.51,0.31-1.3,0.56-2.37,0.77C202.77,52.1,201.83,52.18,200.96,52.18L200.96,52.18z M200.35,22.03c-1.79,0-3.7,0.13-5.74,0.38
	c-1.99,0.26-3.73,0.66-5.21,1.23c-1.33,0.56-2.32,1.25-2.99,2.07c-0.61,0.77-0.92,1.82-0.92,3.15c0,1.02,0.23,2.02,0.69,2.99
	c0.46,0.92,1.02,1.61,1.68,2.07c1.48-0.61,3.14-1.13,4.98-1.53c1.84-0.41,3.73-0.61,5.67-0.61c2.45,0,4.31,0.33,5.59,1
	c1.33,0.61,1.99,1.66,1.99,3.15v0.54l-10.03,1.07c-4.39,0.46-7.63,1.64-9.72,3.53c-2.09,1.89-3.14,4.6-3.14,8.13
	c0,2.1,0.41,3.94,1.22,5.52c0.87,1.59,2.07,2.89,3.6,3.91c1.58,1.02,3.45,1.79,5.59,2.3c2.19,0.51,4.64,0.77,7.35,0.77
	c6.02,0,10.69-1,14.01-2.99c1.02-0.61,1.89-1.33,2.6-2.15c0.77-0.87,1.15-1.97,1.15-3.3V36.07c0-2.4-0.43-4.48-1.3-6.21
	c-0.87-1.79-2.12-3.25-3.75-4.37c-1.58-1.18-3.52-2.05-5.82-2.61C205.61,22.31,203.11,22.03,200.35,22.03L200.35,22.03z M240,15.89
	c0-1.28-0.18-2.3-0.54-3.07c-0.31-0.82-0.77-1.46-1.38-1.92s-1.38-0.77-2.3-0.92c-0.87-0.15-1.86-0.23-2.99-0.23
	c-1.12,0-2.25,0.1-3.37,0.31c-1.07,0.15-1.89,0.28-2.45,0.38v44.5c0,1.28,0.15,2.33,0.46,3.15c0.36,0.77,0.84,1.38,1.45,1.84
	c0.61,0.46,1.35,0.77,2.22,0.92c0.92,0.15,1.94,0.23,3.06,0.23c1.12,0,2.22-0.1,3.29-0.31c1.12-0.15,1.96-0.28,2.53-0.38L240,15.89z
	"/>
</svg>
