<?xml version="1.0" encoding="utf-8"?>
<!-- Generator: Adobe Illustrator 27.6.1, SVG Export Plug-In . SVG Version: 6.00 Build 0)  -->
<svg version="1.1" id="Layer_1" xmlns="http://www.w3.org/2000/svg" xmlns:xlink="http://www.w3.org/1999/xlink" x="0px" y="0px"
	 viewBox="0 0 200 200" style="enable-background:new 0 0 200 200;" xml:space="preserve">
<style type="text/css">
	.st0{fill:url(#SVGID_1_);}
	.st1{fill:#FFFFFF;}
</style>
<radialGradient id="SVGID_1_" cx="100" cy="100" r="100" gradientUnits="userSpaceOnUse">
	<stop  offset="0" style="stop-color:#FEE900"/>
	<stop  offset="1" style="stop-color:#F47B20"/>
</radialGradient>
<path class="st0" d="M170,200H30c-16.57,0-30-13.43-30-30V30C0,13.43,13.43,0,30,0h140c16.57,0,30,13.43,30,30v140
	C200,186.57,186.57,200,170,200z"/>
<g>
	<path class="st1" d="M99.56,71.34c0,0,47.85,64.34,12.78,77.96s-67.02,1.38-67.02,1.38s4.89,28.43,35.32,31.64
		c30.44,3.2,84.18-14.88,71.02-66.1C138.52,65,99.56,71.34,99.56,71.34z"/>
	<path class="st1" d="M154.68,49.18c0,0-44.68-10.88-65.39,1.32c-34.95,20.59,12.18,77.96,12.18,77.96s-38.4,3.01-52.57-45.95
		s45.59-67.42,67.64-64.97C153.71,21.69,154.68,49.18,154.68,49.18z"/>
</g>
</svg>
